<svg width="32" height="33" viewBox="0 0 32 33" fill="none" xmlns="http://www.w3.org/2000/svg">
<path d="M16.1886 9.28637C15.8766 9.45468 15.6821 9.77474 15.6821 10.1229V15.5435H4.97906C4.43862 15.5435 4 15.9719 4 16.4998C4 17.0277 4.43862 17.4562 4.97906 17.4562H15.6821V22.8768C15.6821 23.2261 15.8766 23.5462 16.1886 23.7132C16.5006 23.8828 16.8818 23.8714 17.1834 23.6865L27.5431 17.3095C27.8277 17.1335 28 16.8288 28 16.4998C28 16.1708 27.8277 15.8661 27.5431 15.6901L17.1834 9.31314C17.0241 9.21623 16.8426 9.1665 16.6612 9.1665C16.4993 9.1665 16.3361 9.20731 16.1886 9.28637Z" fill="#3A3A38"/>
</svg>
