<svg width="161" height="161" viewBox="0 0 161 161" fill="none" xmlns="http://www.w3.org/2000/svg">
<path d="M70.2975 50.2865C77.3021 51.3524 84.8949 51.3499 91.8985 50.2789L97.9126 34.8438L64.2711 34.8556L70.2975 50.2865ZM87.9923 56.3963L98.6103 145.029L80.784 160.5L62.949 145.041L73.507 56.3316C76.0038 56.5821 78.5412 56.7225 81.1007 56.7216C83.4193 56.7208 85.7213 56.6039 87.9923 56.3963Z" fill="#3A3A38"/>
<path d="M56.7991 23.7427H104.76L109.343 16.4669H52.2165L56.7991 23.7427ZM159.722 23.4955C157.435 15.6851 151.808 9.39626 144.526 5.33258C140.892 3.30579 136.899 1.87502 132.759 1.13777C131.278 0.87381 129.786 0.707352 128.282 0.619934C127.655 0.583786 126.011 0.5056 125.757 0.500565V0.49971H35.9072L35.9063 0.500565C35.6532 0.5056 34.011 0.583786 33.3839 0.619934C31.8811 0.707352 30.3879 0.87381 28.9071 1.13777C24.7672 1.87502 20.7736 3.30579 17.1408 5.33258C9.85847 9.39626 4.23155 15.6851 1.94462 23.4955C-0.259404 31.021 0.856276 39.2501 4.92565 46.0282C9.04618 52.892 16.2536 57.8308 24.5308 58.8993C32.2797 59.8996 40.3585 57.3399 45.8266 51.9858C51.0682 46.8537 53.1496 39.5249 51.1819 32.593C49.3104 25.9965 43.8705 20.4188 36.6525 19.2343C30.0457 18.1507 22.9706 20.8652 19.732 26.6093C17.7767 30.0786 17.5545 34.3869 19.6271 37.8588C21.5374 41.06 25.1781 43.3776 29.1329 43.0464C31.1773 42.8757 33.2137 42.0511 34.6213 40.6043C35.0173 40.1966 35.3622 39.7435 35.64 39.2551C35.8375 38.9062 35.9531 38.8322 35.6038 38.6221C35.1964 38.3775 34.9503 38.0984 34.5455 38.3859C34.063 38.7289 33.6124 39.1248 33.1079 39.4367C32.3176 39.9242 31.2231 40.1252 30.2979 40.1588C28.3294 40.2294 26.6431 39.4106 25.2937 38.0866C23.7979 36.5894 23.1929 33.8901 23.8649 31.8246C24.4964 29.8853 25.9746 28.2435 27.7817 27.1977C29.8596 25.9956 32.3794 25.6551 34.7483 26.1225C36.8421 26.5353 38.7533 27.7156 40.0868 28.9421C41.326 30.2518 42.3182 31.6817 42.9303 33.3571C44.2682 37.0223 43.7046 41.1743 41.3233 44.3359C38.9297 47.5136 35.0588 49.6379 31.045 50.3054C26.7719 51.0149 22.3065 50.1028 18.7451 47.7397C15.473 45.5692 12.9771 42.3487 11.536 38.8222C8.65282 31.7666 10.0939 23.493 15.1591 17.6707C19.0856 13.1581 24.619 10.2335 30.5528 8.9028C32.9835 8.35722 35.4848 8.15294 37.9816 8.15294H123.685C126.181 8.15294 128.683 8.35722 131.113 8.9028C137.047 10.2335 142.581 13.1581 146.507 17.6707C151.572 23.493 153.013 31.7666 150.13 38.8222C148.69 42.3487 146.194 45.5692 142.922 47.7397C139.36 50.1028 134.894 51.0149 130.622 50.3054C126.607 49.6379 122.736 47.5136 120.343 44.3359C117.962 41.1743 117.398 37.0223 118.737 33.3571C119.348 31.6817 120.341 30.2518 121.58 28.9421C122.913 27.7156 124.824 26.5353 126.919 26.1225C129.287 25.6551 131.807 25.9956 133.884 27.1977C135.692 28.2435 137.17 29.8853 137.801 31.8246C138.473 33.8901 137.868 36.5894 136.373 38.0866C135.023 39.4106 133.338 40.2294 131.368 40.1588C130.443 40.1252 129.348 39.9242 128.559 39.4367C128.054 39.1248 127.603 38.7289 127.121 38.3859C126.716 38.0984 126.47 38.3775 126.062 38.6221C125.713 38.8322 125.829 38.9062 126.026 39.2551C126.304 39.7435 126.649 40.1966 127.046 40.6043C128.452 42.0511 130.489 42.8757 132.533 43.0464C136.489 43.3776 140.129 41.06 142.04 37.8588C144.113 34.3869 143.89 30.0786 141.934 26.6093C138.696 20.8652 131.62 18.1507 125.015 19.2343C117.796 20.4188 112.356 25.9965 110.484 32.593C108.517 39.5249 110.598 46.8537 115.839 51.9858C121.308 57.3399 129.386 59.8996 137.135 58.8993C145.413 57.8308 152.62 52.892 156.74 46.0282C160.81 39.2501 161.926 31.021 159.722 23.4955ZM49.9428 69.6679C49.9428 66.5752 47.3128 64.0684 44.0689 64.0684C40.8242 64.0684 38.1941 66.5752 38.1941 69.6679V137.225H41.2951L49.9428 69.6679ZM111.616 69.6679C111.616 66.5752 114.247 64.0684 117.49 64.0684C120.735 64.0684 123.365 66.5752 123.365 69.6679V137.225H120.264L111.616 69.6679Z" fill="#3A3A38"/>
</svg>
