<svg width="45" height="44" viewBox="0 0 45 44" fill="none" xmlns="http://www.w3.org/2000/svg">
<path fill-rule="evenodd" clip-rule="evenodd" d="M22.791 3.66699C31.1308 3.66699 37.916 10.5035 37.916 18.9075C37.916 29.2383 26.08 39.417 22.791 39.417C19.502 39.417 7.66602 29.2383 7.66602 18.9075C7.66602 10.5035 14.4512 3.66699 22.791 3.66699ZM22.791 6.41699C15.9673 6.41699 10.416 12.0215 10.416 18.9075C10.416 27.669 20.7267 36.205 22.791 36.6597C24.8553 36.2032 35.166 27.6672 35.166 18.9075C35.166 12.0215 29.6147 6.41699 22.791 6.41699ZM22.7928 12.8337C26.0782 12.8337 28.7512 15.5067 28.7512 18.7938C28.7512 22.0792 26.0782 24.7503 22.7928 24.7503C19.5075 24.7503 16.8345 22.0792 16.8345 18.7938C16.8345 15.5067 19.5075 12.8337 22.7928 12.8337ZM22.7928 15.5837C21.0237 15.5837 19.5845 17.0228 19.5845 18.7938C19.5845 20.563 21.0237 22.0003 22.7928 22.0003C24.562 22.0003 26.0012 20.563 26.0012 18.7938C26.0012 17.0228 24.562 15.5837 22.7928 15.5837Z" fill="black"/>
</svg>
