<svg width="24" height="25" viewBox="0 0 24 25" fill="none" xmlns="http://www.w3.org/2000/svg">
<path d="M23.643 5.20905C22.808 5.57905 21.911 5.82905 20.968 5.94205C21.941 5.35984 22.669 4.44352 23.016 3.36405C22.1019 3.90704 21.1014 4.28924 20.058 4.49405C19.3564 3.74491 18.4271 3.24838 17.4143 3.08152C16.4016 2.91467 15.3621 3.08684 14.4572 3.5713C13.5524 4.05576 12.8328 4.82541 12.4102 5.76075C11.9875 6.6961 11.8855 7.7448 12.12 8.74405C10.2677 8.65105 8.45564 8.1696 6.80144 7.33095C5.14723 6.49231 3.68785 5.31521 2.51801 3.87605C2.11801 4.56605 1.88801 5.36605 1.88801 6.21805C1.88757 6.98504 2.07644 7.74029 2.43789 8.41678C2.79934 9.09327 3.32217 9.67009 3.96001 10.096C3.22029 10.0725 2.49688 9.87263 1.85001 9.51305V9.57305C1.84994 10.6488 2.22204 11.6914 2.90319 12.524C3.58434 13.3567 4.53258 13.928 5.58701 14.1411C4.9008 14.3268 4.18135 14.3541 3.48301 14.2211C3.78051 15.1467 4.36001 15.9561 5.14038 16.536C5.92075 17.1159 6.86293 17.4372 7.83501 17.4551C6.18484 18.7505 4.1469 19.4531 2.04901 19.45C1.67739 19.4501 1.30609 19.4284 0.937012 19.385C3.06649 20.7542 5.54535 21.4809 8.07701 21.478C16.647 21.478 21.332 14.38 21.332 8.22405C21.332 8.02405 21.327 7.82205 21.318 7.62205C22.2293 6.96302 23.0159 6.14695 23.641 5.21205L23.643 5.20905Z" fill="#D5D9DB"/>
</svg>
