<svg width="24" height="25" viewBox="0 0 24 25" fill="none" xmlns="http://www.w3.org/2000/svg">
<path fill-rule="evenodd" clip-rule="evenodd" d="M3.9954 4.96951C3.9974 4.96951 3.9474 5.02151 3.8844 5.08351C3.6424 5.31851 3.1414 5.80751 3.13635 6.83051C3.1284 8.26151 4.0694 10.9185 8.6004 15.4485C13.1104 19.9565 15.7634 20.9085 17.1974 20.9085H17.2184C18.2414 20.9035 18.7294 20.4015 18.9654 20.1605C19.0374 20.0865 19.0954 20.0325 19.1364 19.9985C20.1324 18.9965 20.6424 18.2505 20.6374 17.7725C20.6304 17.2845 20.0234 16.7075 19.1844 15.9095C18.9174 15.6555 18.6274 15.3795 18.3214 15.0735C17.5284 14.2825 17.1354 14.4175 16.2714 14.7215C15.0764 15.1405 13.4364 15.7105 10.8884 13.1615C8.3364 10.6115 8.9074 8.97351 9.3254 7.77851C9.6274 6.91451 9.7654 6.52051 8.9714 5.72651C8.6604 5.41651 8.3814 5.12251 8.1244 4.85251C7.3314 4.01851 6.7594 3.41551 6.2744 3.40851H6.2664C5.7874 3.40851 5.0434 3.92051 3.9904 4.97351C3.9934 4.97051 3.9954 4.96951 3.9954 4.96951ZM17.1984 22.4085C14.7064 22.4085 11.4574 20.4245 7.5404 16.5095C3.6084 12.5785 1.6214 9.31951 1.63631 6.82251C1.6454 5.17251 2.5104 4.32751 2.8354 4.01051C2.8524 3.98951 2.9104 3.93251 2.9304 3.91251C4.3644 2.47751 5.3314 1.89751 6.2934 1.90835C7.4104 1.92351 8.2054 2.75951 9.2114 3.81851C9.4604 4.08051 9.7304 4.36551 10.0314 4.66551C11.4914 6.12551 11.0754 7.31651 10.7414 8.27251C10.3774 9.31551 10.0624 10.2155 11.9484 12.1015C13.8364 13.9875 14.7364 13.6725 15.7754 13.3055C16.7324 12.9715 17.9204 12.5535 19.3824 14.0135C19.6784 14.3095 19.9594 14.5765 20.2184 14.8235C21.2824 15.8345 22.1224 16.6335 22.1366 17.7535C22.1484 18.7085 21.5684 19.6815 20.1364 21.1145L19.5024 20.6845L20.0384 21.2085C19.7214 21.5335 18.8774 22.3995 17.2264 22.4085H17.1984Z" fill="white"/>
</svg>
