<svg width="44" height="44" viewBox="0 0 44 44" fill="none" xmlns="http://www.w3.org/2000/svg">
<path fill-rule="evenodd" clip-rule="evenodd" d="M7.99262 9.2784C7.99629 9.2784 7.90462 9.37374 7.78912 9.4874C7.34545 9.91824 6.42695 10.8147 6.4177 12.6902C6.40312 15.3137 8.12829 20.1849 16.4351 28.4899C24.7035 36.7546 29.5673 38.4999 32.1963 38.4999H32.2348C34.1103 38.4907 35.005 37.5704 35.4376 37.1286C35.5696 36.9929 35.676 36.8939 35.7511 36.8316C37.5771 34.9946 38.5121 33.6269 38.503 32.7506C38.4901 31.8559 37.3773 30.7981 35.8391 29.3351C35.3496 28.8694 34.818 28.3634 34.257 27.8024C32.8031 26.3522 32.0826 26.5997 30.4986 27.1571C28.3078 27.9252 25.3011 28.9702 20.6298 24.2971C15.9511 19.6221 16.998 16.6191 17.7643 14.4282C18.318 12.8442 18.571 12.1219 17.1153 10.6662C16.5451 10.0979 16.0336 9.5589 15.5625 9.0639C14.1086 7.5349 13.06 6.4294 12.1708 6.41657H12.1561C11.278 6.41657 9.91396 7.35524 7.98346 9.28574C7.98896 9.28024 7.99262 9.2784 7.99262 9.2784ZM32.1981 41.2499C27.6295 41.2499 21.673 37.6126 14.4918 30.4351C7.28312 23.2282 3.64029 17.2534 3.66763 12.6756C3.68429 9.65057 5.27012 8.1014 5.86595 7.52024C5.89712 7.48174 6.00345 7.37724 6.04012 7.34057C8.66912 4.70974 10.442 3.6464 12.2056 3.66629C14.2535 3.69407 15.711 5.22674 17.5553 7.16824C18.0118 7.64857 18.5068 8.17107 19.0586 8.72107C21.7353 11.3977 20.9726 13.5812 20.3603 15.3339C19.693 17.2461 19.1155 18.8961 22.5731 22.3537C26.0345 25.8114 27.6845 25.2339 29.5893 24.5611C31.3438 23.9487 33.5218 23.1824 36.2021 25.8591C36.7448 26.4017 37.26 26.8912 37.7348 27.3441C39.6855 29.1976 41.2255 30.6624 41.2515 32.7157C41.2731 34.4666 40.2098 36.2504 37.5845 38.8776L36.4221 38.0892L37.4048 39.0499C36.8236 39.6457 35.2763 41.2334 32.2495 41.2499H32.1981Z" fill="black"/>
</svg>
