<svg width="160" height="173" viewBox="0 0 160 173" fill="none" xmlns="http://www.w3.org/2000/svg">
<path d="M66.0846 66.9776L66.1853 57.3267L56.5136 56.8334L51.7586 64.0512L56.7139 73.4924H60.9311L66.0846 66.9776ZM89.0167 68.0366L88.8512 52.1685L105.918 51.2981L114.092 63.7082L106.113 78.9145H96.8281L89.6124 69.7939L89.0167 68.0366ZM93.8151 57.3267L93.9153 66.9776L99.0698 73.4918H103.292L108.244 64.0559L103.487 56.8334L93.8151 57.3267ZM84.4793 80.9582L80.0002 76.235L75.5216 80.9588L72.1138 77.0617L78.2968 70.5411H81.7035L87.8876 77.0612L84.4793 80.9582ZM113.565 33.724C114.99 37.4785 118.17 45.8129 121.583 54.4273C126.479 66.7838 124.422 69.735 120.299 75.6474C119.891 76.232 119.475 76.8278 119.364 76.991C116.56 81.1049 120.883 85.54 120.896 85.5524L120.434 89.8413L105.503 99.4369L97.5561 96.1221V137.843H92.6281V92.2032L95.9582 89.6722L105.039 93.4584L115.484 86.7457C113.731 83.8092 111.959 78.852 115.437 73.7505C115.976 72.9584 116.193 72.6479 116.391 72.365C119.342 68.1321 120.814 66.0194 117.078 56.5871C112.312 44.5607 108.249 33.7553 108.237 33.724H113.565ZM37.1526 33.724C36.1268 51.1608 16.7615 59.282 5.45607 46.8448C-6.18197 34.0411 1.99792 11.9311 18.6732 11.9311V17.3539C6.36935 17.3539 0.403293 33.6191 8.94153 43.012C17.1445 52.0365 31.1956 46.3451 32.2096 33.724H37.1526ZM127.79 33.724C128.805 46.3451 142.856 52.0365 151.059 43.012C159.597 33.6197 153.632 17.3539 141.327 17.3539V11.9311C158.003 11.9311 166.182 34.0423 154.543 46.8448C143.239 59.282 123.874 51.1602 122.848 33.724H127.79ZM47.1119 121.58H42.1839V100.351H47.1119V121.58ZM117.817 121.58H112.889V100.351H117.817V121.58ZM57.2421 137.843H52.3136V104.217H57.2421V137.843ZM107.687 137.843H102.758V104.217H107.687V137.843ZM67.3728 92.2032V137.843H62.4437V96.1221L54.4963 99.4369L39.5667 89.8413L39.1045 85.5524C39.1162 85.54 43.44 81.1043 40.6359 76.991C40.5239 76.8278 40.1093 76.232 39.7012 75.6474C35.5793 69.735 33.5214 66.7838 38.4178 54.4273C41.8309 45.8129 45.0111 37.4785 46.4348 33.724H51.7629C51.7511 33.7553 47.6882 44.5607 42.9226 56.5871C39.1853 66.0194 40.6589 68.1321 43.6098 72.365C43.8075 72.6479 44.0233 72.9584 44.5633 73.7505C48.0412 78.852 46.2698 83.8092 44.5167 86.7457L54.9607 93.4584L64.0416 89.6722L67.3728 92.2032ZM77.503 137.843H72.5739V92.2032H77.503V137.843ZM87.4259 137.843H82.4974V92.2032H87.4259V137.843ZM79.9996 23.0766H141.398C148.885 23.0766 152.712 33.0793 147.376 38.9594L147.381 38.9641C142.446 44.3933 134.012 41.2435 133.027 33.724H138.084C138.968 36.3712 142.068 37.142 143.896 35.1307C144.182 35.1307 146.074 32.0322 143.896 29.6361C143.258 28.933 142.373 28.4981 141.398 28.4981L18.6014 28.4993C13.9515 28.4993 13.9515 36.268 18.6014 36.268C20.1039 36.268 21.4136 35.2309 21.9166 33.724H26.9736C25.987 41.2435 17.5548 44.3933 12.6198 38.9641C7.30191 33.1147 11.0906 23.0766 18.6014 23.0766H79.9996ZM82.4642 155.648H116.658V161.071H43.342V155.648H82.4642ZM80.0002 11.9311H141.327V17.3539H18.6732V11.9311H80.0002ZM82.4642 144.501H107.687V149.924H52.3141V144.501H82.4642ZM80.0002 0.786285H128.239V6.20901H31.7618V0.786285H80.0002ZM33.2182 172.215H129.696V166.792H81.4577H33.2182V172.215ZM71.1218 54.7691L70.9831 68.0366L70.3863 69.7939L63.1717 78.9145H53.8819L45.9045 63.7123L54.0823 51.2981L71.1486 52.1685L71.1218 54.7691Z" fill="#3A3A38"/>
</svg>
