<svg width="161" height="161" viewBox="0 0 161 161" fill="none" xmlns="http://www.w3.org/2000/svg">
<path d="M92.0077 68.8186C95.368 69.4104 99.0105 69.4087 102.371 68.8143L105.256 60.2464L89.1166 60.2532L92.0077 68.8186ZM100.496 72.2105L105.591 121.408L97.0384 127.33L88.4822 121.415L93.5471 72.1746C94.7452 72.3131 95.9628 72.391 97.1904 72.391C98.3032 72.3901 99.4068 72.3251 100.496 72.2105ZM124.553 68.8049C127.914 69.3967 131.555 69.3959 134.916 68.8015L137.801 60.2335L121.661 60.2395L124.553 68.8049ZM133.042 72.1968L138.136 121.395L129.584 127.316L121.028 121.402L126.093 72.1609C127.291 72.3003 128.508 72.3781 129.735 72.3773C130.848 72.3773 131.952 72.3123 133.042 72.1968ZM59.4628 68.8323C62.8231 69.4232 66.4656 69.4224 69.8251 68.828L72.7108 60.26L56.5717 60.266L59.4628 68.8323ZM67.9515 72.2233L73.045 121.422L64.4935 127.344L55.9374 121.429L61.0022 72.1874C62.2004 72.3268 63.4171 72.4047 64.6447 72.4038C65.7576 72.4038 66.8619 72.3388 67.9515 72.2233ZM26.9172 68.8451C30.2774 69.4369 33.92 69.4352 37.2803 68.8408L40.1651 60.2729L24.0261 60.2797L26.9172 68.8451ZM35.4059 72.237L40.5002 121.435L31.9479 127.356L23.3917 121.442L28.4566 72.2011C29.6547 72.3397 30.8722 72.4175 32.0999 72.4175C33.2127 72.4166 34.3163 72.3516 35.4059 72.237Z" fill="#3A3A38"/>
<path d="M22.8648 30.0823L138.466 30.028L80.6594 7.69795L22.8648 30.0823ZM0.666748 31.4806L80.6571 0.5L160.667 31.4056V31.4086C160.667 34.445 158.733 36.9062 156.348 36.9072L4.98942 36.9782C2.60241 36.9792 0.666748 34.5171 0.666748 31.4806ZM146.46 42.2844L14.8562 42.3466C14.857 45.6989 16.9935 48.4156 19.6279 48.4137L141.692 48.3564C144.327 48.3554 146.461 45.6367 146.46 42.2844ZM135.315 160.449L135.312 153.017L26.0902 153.067L26.0925 160.5L135.315 160.449ZM4.3946 160.5C4.39383 156.395 7.00806 153.066 10.2334 153.065L14.045 153.063L14.0427 147.033C14.0419 142.875 16.6895 139.504 19.9559 139.502L141.439 139.445C144.706 139.444 147.355 142.812 147.356 146.97L147.358 153L151.168 152.998C154.394 152.997 157.01 156.323 157.012 160.428L141.52 160.436L141.516 146.878L19.8838 146.935L19.8877 160.493L4.3946 160.5Z" fill="#3A3A38"/>
</svg>
