<svg width="24" height="25" viewBox="0 0 24 25" fill="none" xmlns="http://www.w3.org/2000/svg">
<path fill-rule="evenodd" clip-rule="evenodd" d="M12.2495 2.27246C16.7985 2.27246 20.4995 6.00146 20.4995 10.5855C20.4995 16.2205 14.0435 21.7725 12.2495 21.7725C10.4555 21.7725 3.99951 16.2205 3.99951 10.5855C3.99951 6.00146 7.70051 2.27246 12.2495 2.27246ZM12.2495 3.77246C8.52751 3.77246 5.49951 6.82946 5.49951 10.5855C5.49951 15.3645 11.1235 20.0205 12.2495 20.2685C13.3755 20.0195 18.9995 15.3635 18.9995 10.5855C18.9995 6.82946 15.9715 3.77246 12.2495 3.77246ZM12.2505 7.27246C14.0425 7.27246 15.5005 8.73046 15.5005 10.5235C15.5005 12.3155 14.0425 13.7725 12.2505 13.7725C10.4585 13.7725 9.00051 12.3155 9.00051 10.5235C9.00051 8.73046 10.4585 7.27246 12.2505 7.27246ZM12.2505 8.77246C11.2855 8.77246 10.5005 9.55746 10.5005 10.5235C10.5005 11.4885 11.2855 12.2725 12.2505 12.2725C13.2155 12.2725 14.0005 11.4885 14.0005 10.5235C14.0005 9.55746 13.2155 8.77246 12.2505 8.77246Z" fill="white"/>
</svg>
