<svg width="45" height="44" viewBox="0 0 45 44" fill="none" xmlns="http://www.w3.org/2000/svg">
<path fill-rule="evenodd" clip-rule="evenodd" d="M31.2077 3.66699C37.3127 3.66699 41.9162 8.64816 41.9162 15.2537V27.845C41.9162 31.2257 40.7208 34.28 38.5483 36.447C36.5995 38.3885 34.0713 39.417 31.237 39.417H13.1732C10.3443 39.417 7.81801 38.3903 5.86734 36.447C3.69485 34.28 2.49951 31.2257 2.49951 27.845V15.2537C2.49951 8.64816 7.10301 3.66699 13.208 3.66699H31.2077ZM31.2077 6.41699H13.208C8.59718 6.41699 5.24951 10.1332 5.24951 15.2537V27.845C5.24951 30.4905 6.15884 32.8537 7.80884 34.4982C9.23151 35.919 11.0887 36.667 13.1787 36.667H31.2077C31.2113 36.6633 31.226 36.667 31.237 36.667C33.3288 36.667 35.1842 35.919 36.6068 34.4982C38.2587 32.8537 39.1662 30.4905 39.1662 27.845V15.2537C39.1662 10.1332 35.8185 6.41699 31.2077 6.41699ZM34.097 14.9031C34.5755 15.4916 34.4857 16.357 33.8972 16.8373L25.7498 23.4593C24.7195 24.277 23.4875 24.6858 22.2573 24.6858C21.0308 24.6858 19.808 24.2806 18.785 23.4703L10.5625 16.841C9.97035 16.3643 9.87868 15.4971 10.3535 14.9068C10.832 14.3183 11.6973 14.2248 12.2877 14.6996L20.5028 21.3216C21.535 22.1393 22.9888 22.1393 24.0283 21.3143L32.161 14.7033C32.7513 14.2211 33.6167 14.3128 34.097 14.9031Z" fill="black"/>
</svg>
