<svg width="24" height="25" viewBox="0 0 24 25" fill="none" xmlns="http://www.w3.org/2000/svg">
<path fill-rule="evenodd" clip-rule="evenodd" d="M16.659 2.27246C19.989 2.27246 22.5 4.98946 22.5 8.59246V15.4605C22.5 17.3045 21.848 18.9705 20.663 20.1525C19.6 21.2115 18.221 21.7725 16.675 21.7725H6.822C5.279 21.7725 3.901 21.2125 2.837 20.1525C1.652 18.9705 1 17.3045 1 15.4605V8.59246C1 4.98946 3.511 2.27246 6.841 2.27246H16.659ZM16.659 3.77246H6.841C4.326 3.77246 2.5 5.79946 2.5 8.59246V15.4605C2.5 16.9035 2.996 18.1925 3.896 19.0895C4.672 19.8645 5.685 20.2725 6.825 20.2725H16.659C16.661 20.2705 16.669 20.2725 16.675 20.2725C17.816 20.2725 18.828 19.8645 19.604 19.0895C20.505 18.1925 21 16.9035 21 15.4605V8.59246C21 5.79946 19.174 3.77246 16.659 3.77246ZM18.235 8.40126C18.496 8.72226 18.447 9.19426 18.126 9.45626L13.682 13.0683C13.12 13.5143 12.448 13.7373 11.777 13.7373C11.108 13.7373 10.441 13.5163 9.883 13.0743L5.398 9.45826C5.075 9.19826 5.025 8.72526 5.284 8.40326C5.545 8.08226 6.017 8.03126 6.339 8.29026L10.82 11.9023C11.383 12.3483 12.176 12.3483 12.743 11.8983L17.179 8.29226C17.501 8.02926 17.973 8.07926 18.235 8.40126Z" fill="white"/>
</svg>
