<svg width="45" height="37" viewBox="0 0 45 37" fill="none" xmlns="http://www.w3.org/2000/svg">
<path d="M7.48771 -0.000385284H37.5121V1.61116H7.48771V-0.000385284ZM6.11683 3.12974L38.8832 3.12992C44.3109 3.12992 47.0468 9.72328 43.2052 13.5649C39.3634 17.4063 32.7704 14.67 32.7704 9.24265H34.3818C34.3818 13.2402 39.2378 15.2533 42.0657 12.4252C44.8933 9.59769 42.8811 4.74146 38.8832 4.74146H6.11683C2.11857 4.74146 0.106018 9.59769 2.93408 12.4252C5.76196 15.2533 10.618 13.2406 10.618 9.24265H12.2296C12.2296 14.6704 5.63636 17.4063 1.79457 13.5649C-2.04669 9.72328 0.689103 3.12992 6.11683 3.12992V3.12974ZM29.5201 9.24265H31.1315V31.4328H35.806V33.0443H29.5201V9.24265ZM15.4798 9.24265V33.0443H9.19328V31.4328H13.8683V9.24265H15.4798ZM18.6105 36.1748H7.49893V34.5634H16.9986V9.24265H18.61L18.6105 36.1748ZM24.8713 36.1748H20.1287V9.24265H21.7406V34.5634H23.2594L23.259 9.24265H24.8713V36.1748ZM28.0012 34.5634H37.5009V36.1748H26.3898C26.3898 27.1975 26.3895 18.2201 26.3895 9.24265H28.0012V34.5634ZM37.5121 9.24265C37.5121 10.4609 38.9916 11.0726 39.852 10.2118C40.7133 9.35088 40.1011 7.87177 38.8832 7.87177H6.11683C4.89891 7.87177 4.28706 9.35105 5.14748 10.2118C6.00825 11.0726 7.48771 10.4609 7.48771 9.24265H9.09925C9.09925 11.8902 5.88247 13.2258 4.00833 11.3513C2.13366 9.47665 3.46927 6.26022 6.11683 6.26022H38.8832C41.5304 6.26022 42.8663 9.47647 40.992 11.3513C39.1173 13.2258 35.9007 11.8904 35.9007 9.24265H37.5121Z" fill="#3A3A38"/>
</svg>
