<svg width="24" height="25" viewBox="0 0 24 25" fill="none" xmlns="http://www.w3.org/2000/svg">
<path d="M17.5748 14.4569L17.5748 14.4568L17.5705 14.4609C17.1932 14.8266 17.0205 15.3546 17.1062 15.8717L17.1062 15.8718L17.1075 15.8789L17.9964 20.7985C17.9964 20.7986 17.9964 20.7986 17.9964 20.7987C18.0366 21.0221 17.9424 21.2487 17.7544 21.3786L17.7543 21.3784L17.7434 21.3863C17.5579 21.522 17.3096 21.5392 17.1048 21.4293L17.1048 21.4293L17.0997 21.4267L12.6745 19.1187C12.6738 19.1183 12.6731 19.1179 12.6723 19.1175C12.4486 18.9988 12.2025 18.9363 11.9538 18.9292L11.9466 18.929H11.9395H11.6685H11.6315L11.5949 18.9345C11.4471 18.9565 11.2999 19.0037 11.1629 19.078L6.74078 21.3948C6.61779 21.4558 6.47984 21.4776 6.34467 21.4574C6.0243 21.3931 5.81058 21.087 5.86141 20.7631L6.75052 15.848L6.75059 15.848L6.75189 15.8401C6.83722 15.3209 6.66512 14.7927 6.2903 14.4237L6.2875 14.421L2.67668 10.9211C2.51372 10.763 2.45785 10.5269 2.53179 10.3142L2.53313 10.3103C2.60741 10.0907 2.79615 9.93109 3.02372 9.89432L7.98103 9.17516C8.52486 9.11522 9.00111 8.78284 9.24572 8.29361L9.24574 8.29362L9.2479 8.28919L11.4347 3.80581C11.4593 3.75945 11.4883 3.71909 11.5201 3.68553L11.5855 3.63467L11.6201 3.60777L11.6494 3.57527C11.6543 3.56989 11.6597 3.56464 11.666 3.55951L11.7208 3.53939L11.7299 3.53604L11.7389 3.53234L11.8174 3.5H12.1099C12.3087 3.52773 12.4812 3.64907 12.5735 3.8261L14.7894 8.28975C14.7896 8.29025 14.7899 8.29074 14.7901 8.29124C15.0228 8.76562 15.4736 9.09369 15.9928 9.17323L15.9928 9.17325L15.9967 9.17382L20.9667 9.89482L20.9678 9.89497C21.2006 9.92823 21.3959 10.0883 21.4746 10.3097C21.543 10.5246 21.4821 10.7599 21.3164 10.9154L21.3148 10.9169L17.5748 14.4569Z" stroke="#9A9162"/>
</svg>
