<svg width="161" height="161" viewBox="0 0 161 161" fill="none" xmlns="http://www.w3.org/2000/svg">
<path d="M80.5 16.6938C70.1675 16.6938 60.0495 17.4824 50.4116 18.9815V26.2753C60.0235 24.7625 70.1455 23.967 80.5 23.967C90.8545 23.967 100.977 24.7625 110.588 26.2753V18.9815C100.951 17.4824 90.8332 16.6938 80.5 16.6938ZM110.588 153.013H50.4116V160.5H110.588V153.013ZM105.009 137.979H55.9901V145.466H105.009V137.979ZM55.9901 40.0461H105.009V32.5592H55.9901V40.0461ZM96.0774 47.593H90.2664V130.432H96.0774V47.593ZM83.4052 47.593H77.5942V130.432H83.4052V47.593ZM70.733 130.432H64.922V47.593H70.733V130.432Z" fill="#3A3A38"/>
<path d="M138.678 81.1959L137.37 22.7774C137.597 22.7919 137.823 22.7902 138.047 22.7645L148.705 81.4688C145.413 81.3049 142.063 81.2216 138.678 81.1959ZM125.106 81.4688L135.838 22.3569C136.035 22.4547 136.233 22.5337 136.432 22.5972L135.12 81.1959C131.74 81.2216 128.394 81.3049 125.106 81.4688ZM25.8804 81.1959L24.5683 22.5972C24.7675 22.5337 24.9653 22.4547 25.1617 22.3569L35.8939 81.4688C32.6064 81.3049 29.2604 81.2216 25.8804 81.1959ZM12.2951 81.4688L22.9533 22.7645C23.177 22.7902 23.4028 22.7919 23.6299 22.7774L22.3219 81.1959C18.9372 81.2216 15.5872 81.3049 12.2951 81.4688ZM153.001 81.7356L139.316 22.4015C140.191 21.9939 140.973 21.274 141.558 20.2975C143.334 21.0655 145.104 21.8661 146.865 22.7079C146.969 22.435 147.337 21.7434 147.271 21.4954C147.156 21.0569 145.892 20.397 145.603 20.1713C137.89 14.1355 129.24 9.93849 120.534 6.9789C111.219 3.81252 101.688 1.87321 92.0799 1.02627C72.996 -0.655602 53.5205 1.61235 35.2199 8.9491C30.7882 10.7254 26.3699 12.8474 22.1933 15.4655C20.3012 16.6514 18.4071 17.8613 16.5888 19.2283C15.7423 19.8641 14.9112 20.5394 14.0773 21.2036C13.5978 21.5855 13.6564 21.5623 13.9328 22.2153C14.2358 22.931 14.4017 22.5714 15.0091 22.2814C15.9475 21.8343 16.8772 21.3564 17.823 20.9359C18.3518 20.7016 18.8819 20.4759 19.4114 20.246C20.0002 21.2482 20.794 21.9862 21.6838 22.4015L7.99929 81.7356C5.46978 81.909 2.96091 82.1072 0.5 82.3586C5.62962 93.1329 14.2771 100.229 24.1015 100.229C33.9251 100.229 42.5726 93.1329 47.7022 82.3586C45.232 82.1063 42.7138 81.9081 40.175 81.7348L26.308 21.5537C27.5228 20.4133 28.2567 18.6336 28.3413 16.7415C31.3017 15.7255 34.2901 14.8288 37.2858 14.0453C55.9255 9.16963 75.1319 7.79496 94.1046 9.20052C103.711 9.91189 113.271 11.3981 122.714 13.7922C126.069 14.6426 129.381 15.6594 132.661 16.8102C132.761 18.6765 133.492 20.427 134.692 21.5537L120.825 81.7348C118.286 81.9081 115.768 82.1063 113.298 82.3586C118.427 93.1329 127.075 100.229 136.899 100.229C146.723 100.229 155.37 93.1329 160.5 82.3586C158.039 82.1072 155.53 81.909 153.001 81.7356Z" fill="#3A3A38"/>
</svg>
