<svg width="32" height="32" viewBox="0 0 32 32" fill="none" xmlns="http://www.w3.org/2000/svg">
<path d="M21.7868 2.6665C26.3068 2.6665 29.3335 5.83984 29.3335 10.5598V21.4545C29.3335 26.1598 26.3068 29.3332 21.7868 29.3332H10.2268C5.70681 29.3332 2.66681 26.1598 2.66681 21.4545V10.5598C2.66681 5.83984 5.70681 2.6665 10.2268 2.6665H21.7868ZM21.5735 11.9998C21.1201 11.5465 20.3735 11.5465 19.9201 11.9998L14.4135 17.5065L12.0801 15.1732C11.6268 14.7198 10.8801 14.7198 10.4268 15.1732C9.97348 15.6265 9.97348 16.3598 10.4268 16.8265L13.6001 19.9865C13.8268 20.2132 14.1201 20.3198 14.4135 20.3198C14.7201 20.3198 15.0135 20.2132 15.2401 19.9865L21.5735 13.6532C22.0268 13.1998 22.0268 12.4665 21.5735 11.9998Z" fill="#1E2E45"/>
</svg>
