<svg width="24" height="25" viewBox="0 0 24 25" fill="none" xmlns="http://www.w3.org/2000/svg">
<path fill-rule="evenodd" clip-rule="evenodd" d="M1 3.11046C1 2.623 1.19365 2.15549 1.53834 1.8108C1.88303 1.46611 2.35053 1.27246 2.838 1.27246H21.16C21.4016 1.27207 21.6409 1.31933 21.8641 1.41153C22.0874 1.50373 22.2903 1.63907 22.4612 1.8098C22.6322 1.98053 22.7677 2.18329 22.8602 2.40647C22.9526 2.62966 23.0001 2.86889 23 3.11046V21.4325C23.0003 21.6741 22.9529 21.9134 22.8606 22.1367C22.7683 22.36 22.6328 22.5629 22.462 22.7338C22.2912 22.9047 22.0884 23.0402 21.8651 23.1327C21.6419 23.2251 21.4026 23.2726 21.161 23.2725H2.838C2.59655 23.2725 2.35746 23.2249 2.1344 23.1325C1.91134 23.04 1.70867 22.9046 1.53798 22.7338C1.3673 22.563 1.23193 22.3603 1.13962 22.1371C1.04731 21.914 0.999869 21.6749 1 21.4335V3.11046ZM9.708 9.66046H12.687V11.1565C13.117 10.2965 14.217 9.52246 15.87 9.52246C19.039 9.52246 19.79 11.2355 19.79 14.3785V20.2005H16.583V15.0945C16.583 13.3045 16.153 12.2945 15.061 12.2945C13.546 12.2945 12.916 13.3835 12.916 15.0945V20.2005H9.708V9.66046ZM4.208 20.0635H7.416V9.52246H4.208V20.0625V20.0635ZM7.875 6.08446C7.88105 6.35914 7.83217 6.63225 7.73124 6.88778C7.63031 7.14331 7.47935 7.3761 7.28723 7.5725C7.09511 7.76889 6.8657 7.92494 6.61246 8.03147C6.35921 8.138 6.08724 8.19288 5.8125 8.19288C5.53776 8.19288 5.26579 8.138 5.01255 8.03147C4.7593 7.92494 4.52989 7.76889 4.33777 7.5725C4.14565 7.3761 3.99469 7.14331 3.89376 6.88778C3.79283 6.63225 3.74395 6.35914 3.75 6.08446C3.76187 5.54532 3.98439 5.03225 4.36989 4.65515C4.75539 4.27804 5.27322 4.06688 5.8125 4.06688C6.35178 4.06688 6.86961 4.27804 7.25512 4.65515C7.64062 5.03225 7.86313 5.54532 7.875 6.08446Z" fill="#D5D9DB"/>
</svg>
