<svg width="24" height="25" viewBox="0 0 24 25" fill="none" xmlns="http://www.w3.org/2000/svg">
<path d="M11.9968 8.60081C9.97522 8.60081 8.32546 10.2506 8.32546 12.2722C8.32546 14.2938 9.97522 15.9436 11.9968 15.9436C14.0184 15.9436 15.6681 14.2938 15.6681 12.2722C15.6681 10.2506 14.0184 8.60081 11.9968 8.60081ZM23.0081 12.2722C23.0081 10.7519 23.0218 9.24531 22.9364 7.72772C22.8511 5.965 22.449 4.4006 21.16 3.11161C19.8683 1.81987 18.3066 1.42051 16.544 1.33512C15.0237 1.24974 13.5171 1.26351 11.9996 1.26351C10.4792 1.26351 8.9727 1.24974 7.45514 1.33512C5.69246 1.42051 4.12808 1.82263 2.83912 3.11161C1.5474 4.40335 1.14804 5.965 1.06266 7.72772C0.977283 9.24806 0.991054 10.7546 0.991054 12.2722C0.991054 13.7898 0.977283 15.2991 1.06266 16.8167C1.14804 18.5794 1.55015 20.1438 2.83912 21.4328C4.13083 22.7246 5.69246 23.1239 7.45514 23.2093C8.97545 23.2947 10.482 23.2809 11.9996 23.2809C13.5199 23.2809 15.0264 23.2947 16.544 23.2093C18.3066 23.1239 19.871 22.7218 21.16 21.4328C22.4517 20.1411 22.8511 18.5794 22.9364 16.8167C23.0246 15.2991 23.0081 13.7926 23.0081 12.2722ZM11.9968 17.9212C8.87079 17.9212 6.34795 15.3983 6.34795 12.2722C6.34795 9.14615 8.87079 6.62327 11.9968 6.62327C15.1228 6.62327 17.6456 9.14615 17.6456 12.2722C17.6456 15.3983 15.1228 17.9212 11.9968 17.9212ZM17.877 7.71119C17.1471 7.71119 16.5577 7.12179 16.5577 6.39191C16.5577 5.66204 17.1471 5.07263 17.877 5.07263C18.6069 5.07263 19.1963 5.66204 19.1963 6.39191C19.1965 6.56522 19.1625 6.73688 19.0963 6.89704C19.0301 7.0572 18.9329 7.20272 18.8103 7.32527C18.6878 7.44782 18.5423 7.54499 18.3821 7.61121C18.222 7.67744 18.0503 7.71141 17.877 7.71119Z" fill="#D5D9DB"/>
</svg>
