<svg width="44" height="44" viewBox="0 0 44 44" fill="none" xmlns="http://www.w3.org/2000/svg">
<path fill-rule="evenodd" clip-rule="evenodd" d="M29.946 3.66699C36.1592 3.66699 40.3337 8.02666 40.3337 14.513V29.4877C40.3337 35.974 36.1592 40.3337 29.9442 40.3337H14.0528C7.83966 40.3337 3.66699 35.974 3.66699 29.4877V14.513C3.66699 8.02666 7.83966 3.66699 14.0528 3.66699H29.946ZM29.946 6.41699H14.0528C9.41449 6.41699 6.41699 9.59416 6.41699 14.513V29.4877C6.41699 34.4065 9.41449 37.5837 14.0528 37.5837H29.9442C34.5843 37.5837 37.5837 34.4065 37.5837 29.4877V14.513C37.5837 9.59416 34.5862 6.41699 29.946 6.41699ZM21.9987 12.6203C22.7577 12.6203 23.3737 13.2363 23.3737 13.9953V21.2113L28.9213 24.5168C29.5722 24.9073 29.7867 25.7506 29.398 26.4033C29.1395 26.8341 28.683 27.0743 28.2155 27.0743C27.9753 27.0743 27.7333 27.0119 27.5115 26.8818L21.2947 23.1729C20.8803 22.9236 20.6237 22.4744 20.6237 21.9923V13.9953C20.6237 13.2363 21.2397 12.6203 21.9987 12.6203Z" fill="black"/>
</svg>
